<svg xmlns="http://www.w3.org/2000/svg" width="1366" height="768" viewBox="0 0 1366 768">
  <g>
    <path d="M841.56,746.16c-.7.23-1.06.34-1.06.34A1.977,1.977,0,0,0,841.56,746.16Zm.01-.01c13.94-4.55,160.85-54.12,248-147.4,95.14,3.63,205.26-11.58,276.43-47.75V768H773.66C747.88,717.84,687.8,661.28,548,680c-183.78,24.61-205.55-57.81-168.51-209.51C838.15,716.78,845.34,743.3,841.57,746.15Z" fill="#050505"/>
    <path d="M1366,324.99V551c-71.17,36.17-181.29,51.38-276.43,47.75,74.45-79.68,105.3-191.25-27.57-333.9,70.15-35.33,105.14-69.34,117.04-100.89C1247.46,212.26,1313.28,266.56,1366,324.99Z" fill="#1857f5"/>
    <path d="M1366,0V324.99c-52.72-58.43-118.54-112.73-186.96-161.03C1206.1,92.21,1113.77,33.15,1044.01,0Z" fill="#853542"/>
    <path d="M1044.01,0c69.76,33.15,162.09,92.21,135.03,163.96C1082.17,95.56,980.09,39.15,902.58,0Z" fill="#ea367e"/>
    <path d="M1179.04,163.96c-11.9,31.55-46.89,65.56-117.04,100.89q-15.285-16.41-33.5-33.35C896.25,108.64,809.3,38.93,752.19,0H902.58C980.09,39.15,1082.17,95.56,1179.04,163.96Z" fill="#58aed0"/>
    <path d="M1062,264.85c132.87,142.65,102.02,254.22,27.57,333.9C973,594.31,878.91,561.59,906.5,504.5c19.91-41.21-7.51-101.8-57.63-167.89,59.56-11.78,119.38-29.56,177.63-55.11Q1045.58,273.13,1062,264.85Z" fill="#853542"/>
    <path d="M1028.5,231.5q18.24,16.95,33.5,33.35-16.44,8.28-35.5,16.65c-58.25,25.55-118.07,43.33-177.63,55.11C755.75,213.73,584.24,71.81,492.81,0H752.19C809.3,38.93,896.25,108.64,1028.5,231.5Z" fill="#050505"/>
    <path d="M1089.57,598.75c-87.15,93.28-234.06,142.85-248,147.4,3.77-2.85-3.42-29.37-462.08-275.66,9.71-39.78,23.46-84.32,39.4-132.94,119.69,19.61,273.95,29.92,429.98-.94,50.12,66.09,77.54,126.68,57.63,167.89C878.91,561.59,973,594.31,1089.57,598.75Z" fill="#ea367e"/>
    <path d="M841.56,746.16a1.977,1.977,0,0,1-1.06.34S840.86,746.39,841.56,746.16Z" fill="#fff"/>
    <path d="M492.81,0c91.43,71.81,262.94,213.73,356.06,336.61-156.03,30.86-310.29,20.55-429.98.94Q422.37,326.9,426,316C482.91,144.58,313.93,44.93,205.19,0Z" fill="#1857f5"/>
    <path d="M773.66,768H0V429.04c64.18-54.61,177.93-66.79,379.49,41.45C342.45,622.19,364.22,704.61,548,680,687.8,661.28,747.88,717.84,773.66,768Z" fill="#58aed0"/>
    <path d="M205.19,0C313.93,44.93,482.91,144.58,426,316q-3.615,10.9-7.11,21.55C283.87,315.44,192.83,281.5,192.83,281.5L0,122.4V0Z" fill="#853542"/>
    <path d="M418.89,337.55c-15.94,48.62-29.69,93.16-39.4,132.94C177.93,362.25,64.18,374.43,0,429.04V122.4L192.83,281.5S283.87,315.44,418.89,337.55Z" fill="#050505"/>
  </g>
</svg>
