<svg width="106" height="311" viewBox="0 0 106 311" fill="none" xmlns="http://www.w3.org/2000/svg">
<path d="M29.4822 228.869C28.51 228.869 27.6836 228.625 27.0517 228.037L25.6421 226.569L26.8087 224.562C30.1627 218.934 33.4194 215.948 36.8706 212.766C37.9886 211.739 39.1066 210.711 40.2732 209.585C43.53 206.355 46.7867 202.341 49.9463 198.425C53.203 194.412 56.557 190.251 60.0568 186.825C67.7856 179.141 75.3685 175.519 82.6597 172.044C85.9165 170.477 88.9788 169.009 91.9925 167.247C94.1799 165.974 96.8534 164.359 98.6519 166.219C99.381 166.953 99.9157 168.324 98.6033 170.428C96.5617 173.659 94.423 177.428 92.187 181.441C87.715 189.468 83.0486 197.789 78.0419 203.32C71.0909 211.004 63.7997 215.507 60.1054 217.514C56.1195 219.668 52.5225 220.598 49.0713 221.479C47.7103 221.821 46.3493 222.164 44.9882 222.604C42.3634 223.388 39.7871 224.269 37.0165 226.129C36.1415 226.765 32.3501 228.869 29.4822 228.869ZM91.2634 173.218C89.076 174.344 86.8887 175.421 84.7499 176.449C77.7989 179.777 70.6048 183.203 63.4594 190.3C60.2027 193.58 56.8973 197.593 53.6891 201.509C50.4324 205.473 47.0784 209.634 43.6758 213.06C42.4606 214.284 41.294 215.361 40.1274 216.388C38.1831 218.15 36.4332 219.815 34.6833 221.821C37.8428 219.766 40.7593 218.787 43.53 217.906C44.9882 217.465 46.3979 217.123 47.8075 216.731C51.1615 215.899 54.2724 215.067 57.7722 213.207C61.2234 211.347 67.9314 207.187 74.3963 200.041C79.0627 194.901 83.5347 186.874 87.9094 179.043C89.076 177.036 90.194 175.078 91.2634 173.218Z" fill="#EBCFB2"/>
<path d="M56.5084 84.9206C53.3975 103.079 53.4947 121.042 52.3767 139.348C51.1615 158.681 45.7174 177.574 38.8636 195.635C30.746 217.122 18.8856 237.043 9.74717 258.09C5.8585 266.998 2.99061 276.591 -1.57858 285.157C-5.7589 292.988 -11.9322 299.743 -17.4249 306.644C-19.3693 309.091 -15.9181 312.566 -13.9737 310.119C-3.62013 297.051 3.71973 285.842 9.893 270.375C19.08 247.42 31.5237 226.031 41.051 203.222C48.3908 185.699 54.3697 166.758 56.5571 147.767C58.8903 127.21 57.7723 106.701 61.2721 86.1442C61.7095 83.1585 57.0431 81.837 56.5084 84.9206Z" fill="#EBCFB2"/>
<path d="M58.5014 91.6261C57.3348 91.6261 55.8765 90.8919 55.5363 88.9341C53.5433 79.096 50.8212 60.252 53.6891 39.2543C56.2654 20.2635 68.223 0.195782 71.4312 0.0489455L72.5492 0L73.4241 0.929965C74.3477 1.95782 74.1047 3.13251 74.0075 3.91564H72.7922L72.9381 4.11143L73.9588 4.20932C72.9381 13.9005 73.7158 22.2213 74.4935 30.2483C75.4171 39.9396 76.292 49.1413 73.9102 59.5667C70.3132 75.1314 63.7511 91.6261 58.5014 91.6261Z" fill="#EBCFB2"/>
<path d="M55.0011 155.06C54.4178 155.06 53.9317 154.962 53.4942 154.668C52.4248 154.032 51.6471 152.563 52.4248 150.752C52.5221 150.508 52.6679 149.92 52.9109 149.039C54.6608 142.823 59.9591 123.881 71.6738 105.625C82.6107 88.5915 100.985 77.1383 103.61 77.4809L105.019 77.6767L105.7 79.0961C106.283 80.5644 105.359 81.7391 104.922 82.3265L104.776 82.5223C99.7694 90.892 96.9988 98.7232 94.2767 106.359C91.0199 115.561 87.9576 124.224 81.3955 132.643C72.5001 144.243 60.4938 155.06 55.0011 155.06Z" fill="#EBCFB2"/>
<path d="M38.4753 203.711C33.3228 203.711 23.6497 189.566 17.4279 175.421C13.1017 165.632 12.2268 156.43 11.3032 146.739C10.5255 138.712 9.74773 130.44 6.87984 121.091C6.49097 120.21 5.85906 118.791 6.83123 117.518L7.65757 116.344L9.21304 116.491C11.9351 116.882 26.9065 132.398 33.3714 151.584C40.3224 172.239 40.9057 191.867 41.1001 198.327C41.1001 199.208 41.1488 199.796 41.1488 200.09C41.4404 201.998 40.371 203.222 39.1558 203.565C38.9614 203.663 38.7183 203.711 38.4753 203.711ZM36.3851 200.824C36.3851 200.873 36.3851 200.873 36.3851 200.824C36.3851 200.873 36.3851 200.873 36.3851 200.824ZM13.3448 126.671C14.9002 133.621 15.4835 140.033 16.1154 146.249C16.9904 155.549 17.8653 164.359 21.8512 173.414C27.344 185.895 32.9825 193.335 36.1907 196.712C35.9477 189.126 34.9755 171.505 28.7536 153.151C24.8649 141.551 18.157 132.251 13.3448 126.671Z" fill="#EBCFB2"/>
<path d="M54.8555 122.07C50.2863 122.07 40.7105 113.651 32.5443 102.149C22.3851 87.8571 20.1977 46.1066 21.7046 43.1209L22.3851 41.7994H23.892C25.9335 41.8483 26.4682 43.8551 26.6626 44.5893C26.7599 44.8829 26.8085 45.2256 26.9543 45.6171L27.6348 47.3302C32.9817 61.0839 35.2177 66.7616 44.2103 80.4664C50.1891 89.5702 51.4043 96.1779 52.5709 102.541C53.4459 107.24 54.3208 112.085 57.1887 118.203L58.1123 120.21L56.1679 121.776C55.8277 121.972 55.3416 122.07 54.8555 122.07Z" fill="#EBCFB2"/>
<path d="M7.99671 270.424C6.29542 270.424 5.85794 269.641 2.84422 263.865C2.16371 262.593 1.58041 261.418 1.24015 260.88C-2.64852 254.517 -5.03033 250.65 -6.48859 243.798C-7.65519 238.414 -8.04405 233.128 -7.80101 227.058C-7.55797 221.332 -6.39137 216.682 -5.22477 212.179C-4.05817 207.578 -2.94017 203.222 -2.84296 197.887C-2.79435 195.44 -1.57914 191.769 1.04571 191.279C2.16371 191.083 3.76778 191.475 4.59413 193.384C16.6976 221.772 18.9336 251.433 10.2813 269.005L9.60079 270.375L7.99671 270.424C8.04532 270.424 7.99671 270.424 7.99671 270.424ZM-1.72496 242.819C-0.509755 248.594 1.33736 251.776 5.37186 258.335C5.71212 258.922 6.39264 260.195 7.12176 261.565C7.26759 261.859 7.46202 262.201 7.65646 262.544C13.0034 247.028 10.816 222.996 1.92066 199.894C1.62901 204.984 0.511022 209.291 -0.558363 213.452C-1.67636 217.906 -2.74574 222.115 -2.98878 227.303C-3.13461 232.932 -2.74574 237.826 -1.72496 242.819Z" fill="#EBCFB2"/>
</svg>
