<svg width="89" height="75" viewBox="0 0 89 75" fill="none" xmlns="http://www.w3.org/2000/svg">
<path d="M45.6655 9.80467C36.1318 18.7218 26.8309 28.379 20.5102 40.3771C17.5832 45.9594 14.0719 51.4559 12.0588 57.6106C10.5657 62.224 9.89476 67.2089 8.48076 71.833C8.26926 72.5192 9.33481 72.8912 9.54632 72.205C11.4256 66.0712 12.1967 59.5336 14.8373 53.75C18.3379 46.0878 22.5196 38.258 27.3366 31.6127C36.9949 18.28 49.418 6.19965 63.7494 -1.22838C70.7692 -4.85818 77.8526 -7.19902 85.5576 -9.05259C86.2022 -9.19913 89.8267 -10.0789 88.4358 -11.8143C87.179 -13.4016 79.5988 -10.0688 74.6207 -7.70237C63.9562 -4.11197 53.6386 2.35264 45.6655 9.80467Z" fill="#424B54"/>
<path d="M14.1068 53.4951C12.6085 55.6576 12.73 58.4362 12.7236 61.204C12.6959 65.3663 11.9621 69.4002 11.8857 73.5624C11.8691 74.3335 12.9584 74.4098 12.975 73.6386C13.047 70.2688 13.5512 67.0161 13.7328 63.6676C13.915 60.6572 13.2316 56.821 14.93 54.3737C15.3304 53.804 14.5072 52.9255 14.1068 53.4951Z" fill="#424B54"/>
<path d="M16.1643 74.1946C16.3071 69.7685 16.1334 65.2994 15.8683 60.7985C15.7042 57.9881 15.1316 54.7648 15.6431 52.072C15.7632 51.3539 14.6977 50.9819 14.5593 51.7105C14.0899 54.1816 14.5341 57.056 14.6976 59.6129C15.0061 64.4836 15.2109 69.3013 15.075 74.1183C15.0462 74.8683 16.1355 74.9446 16.1643 74.1946Z" fill="#424B54"/>
<path d="M19.1593 71.9297C18.9487 64.4076 18.2754 56.7576 17.0791 49.2123C16.962 48.462 15.8605 48.3646 15.9899 49.136C17.1557 56.6708 17.8472 64.3102 18.0578 71.8323C18.0716 72.6141 19.1791 72.6798 19.1593 71.9297Z" fill="#424B54"/>
<path d="M21.7316 71.2067C21.4165 66.0296 21.6918 60.991 20.8168 55.7704C20.2378 52.4098 19.3788 48.9852 19.0309 45.6039C18.9502 44.8325 17.8609 44.7563 17.9416 45.5276C18.2709 48.7504 19.0931 52.0271 19.6536 55.2292C20.5958 60.6084 20.3451 65.7737 20.6606 71.1199C20.6926 71.8912 21.7819 71.9674 21.7316 71.2067Z" fill="#424B54"/>
<path d="M23.6483 68.548C23.7885 60.0335 21.8963 51.3669 20.3511 42.8383C20.2035 42.0773 19.1696 42.3076 19.3172 43.0685C20.8318 51.5019 22.7117 60.0629 22.559 68.4717C22.5302 69.2217 23.6377 69.2874 23.6483 68.548Z" fill="#424B54"/>
<path d="M27.5724 65.4927C27.3258 61.0657 26.209 56.6053 25.1411 52.2294C24.1776 48.3292 22.4645 43.8463 22.4379 39.8847C22.4363 39.1241 21.3288 39.0584 21.3487 39.8085C21.3678 43.1257 22.6593 46.7519 23.4815 50.0286C24.7578 55.1021 26.1924 60.2816 26.4649 65.4269C26.5212 66.156 27.6105 66.2322 27.5724 65.4927Z" fill="#424B54"/>
<path d="M30.6989 65.0136C29.6578 56.0529 26.4687 46.9504 22.7942 38.523C22.4763 37.8039 21.5769 38.3514 21.8826 39.0492C25.4654 47.2758 28.6056 56.2092 29.5914 64.9479C29.6782 65.6875 30.7796 65.7849 30.6989 65.0136Z" fill="#424B54"/>
<path d="M33.0453 61.1202C29.5902 52.82 29.5281 43.5762 24.3827 35.8851C23.9554 35.2292 23.0439 35.7555 23.4711 36.4114C28.5677 44.0178 28.5869 53.1454 32.0115 61.3504C32.2989 62.0588 33.345 61.8498 33.0453 61.1202Z" fill="#424B54"/>
<path d="M35.7214 57.798C33.5619 49.342 29.0555 41.7052 25.9474 33.543C25.6782 32.8241 24.6321 33.0331 24.9135 33.7732C28.0216 41.9354 32.5098 49.5828 34.6876 58.0282C34.8716 58.7681 35.9055 58.5379 35.7214 57.798Z" fill="#424B54"/>
<path d="M37.9041 56.9891C37.1479 53.2795 35.4731 49.6207 33.975 46.1419C31.9329 41.426 28.7176 37.2463 26.8762 32.4991C26.607 31.7802 25.5609 31.9892 25.8423 32.7293C27.5308 37.0854 30.4532 40.8418 32.3726 45.0927C34.1087 48.9417 36.028 53.1081 36.8702 57.2194C37.0057 57.9591 38.0395 57.7289 37.9041 56.9891Z" fill="#424B54"/>
<path d="M47.8836 43.1605C43.7058 35.5032 42.1779 26.5415 37.6537 19.0842C37.2446 18.4178 36.3331 18.9441 36.7421 19.6105C41.2664 27.0678 42.8064 36.0506 46.9721 43.6868C47.3751 44.3849 48.2867 43.8586 47.8836 43.1605Z" fill="#424B54"/>
<path d="M34.288 21.5069C34.8736 25.0894 37.1148 29.0135 38.5213 32.3759C40.3558 36.7322 42.385 41.0889 43.9946 45.5187C44.2456 46.2482 45.3099 46.0286 45.0285 45.2885C43.5656 41.1971 41.6954 37.1998 39.9954 33.1607C38.4912 29.6291 35.9692 25.303 35.3651 21.562C35.2601 20.8328 34.1708 20.7566 34.288 21.5069Z" fill="#424B54"/>
<path d="M33.3474 22.6143C34.9239 31.576 38.0248 42.0834 42.903 50.0697C43.3121 50.7361 44.2237 50.2098 43.8146 49.5434C39.0951 41.8321 35.964 31.3986 34.4367 22.6905C34.3012 21.9507 33.212 21.8745 33.3474 22.6143Z" fill="#424B54"/>
<path d="M41.3943 50.151C38.1167 42.3688 35.3497 34.3764 30.7043 27.2146C30.2771 26.5587 29.3655 27.085 29.7928 27.7409C34.3588 34.8074 37.1134 42.6941 40.3483 50.36C40.6479 51.0896 41.6818 50.8594 41.3943 50.151Z" fill="#424B54"/>
<path d="M28.621 28.869C29.5369 33.2762 31.8698 37.4012 33.5944 41.5671C35.2578 45.5428 36.8542 49.5288 38.779 53.41C39.1333 54.108 40.0449 53.5817 39.6905 52.8837C37.6252 48.717 35.9489 44.3822 34.1328 40.0998C32.5307 36.3144 30.503 32.6338 29.6549 28.6388C29.489 27.8883 28.4552 28.1186 28.621 28.869Z" fill="#424B54"/>
<path d="M57.3338 32.2043C55.3786 28.3125 53.6848 24.3262 51.8572 20.3608C50.2192 16.85 47.8291 14.4786 45.5592 11.389C45.0954 10.7542 44.1839 11.2805 44.6476 11.9153C46.8505 14.9308 49.3443 17.4398 50.9457 20.8871C52.7793 24.8208 54.4671 28.8388 56.4223 32.7306C56.7584 33.4391 57.6699 32.9128 57.3338 32.2043Z" fill="#424B54"/>
<path d="M42.3443 13.1043C41.7059 16.2088 44.5887 21.3702 45.7569 24.2779C47.3902 28.4119 49.7539 32.7165 50.8216 37.0079C51.0179 37.7689 52.0518 37.5387 51.8555 36.7776C50.9534 33.1522 48.9866 29.4928 47.5859 26.0143C46.3748 22.9903 42.7839 16.6865 43.4403 13.4869C43.5605 12.7688 42.495 12.3968 42.3443 13.1043Z" fill="#424B54"/>
<path d="M44.3205 12.5275C46.3341 20.9831 51.1928 28.3883 54.1852 36.4763C54.4544 37.1952 55.5005 36.9861 55.219 36.246C52.2389 28.1793 47.3495 20.6789 45.3422 12.2761C45.1763 11.5257 44.1242 11.7664 44.3205 12.5275Z" fill="#424B54"/>
<path d="M50.1807 41.75C47.58 37.5822 45.9637 32.8461 44.2626 28.2999C42.8248 24.5043 41.7642 20.6883 38.8192 17.7347C38.2582 17.1842 37.5419 17.9644 38.1028 18.5149C41.6759 22.0932 42.9229 27.7477 44.691 32.368C45.9942 35.7619 47.346 39.1558 49.2691 42.2763C49.6782 42.9427 50.5898 42.4165 50.1807 41.75Z" fill="#424B54"/>
<path d="M28.8609 -1.53452C36.9347 1.25037 44.9103 6.51765 53.2123 5.02452C53.8996 4.90977 53.5381 3.73638 52.8631 3.87229C44.7982 5.31309 36.92 0.0460269 29.0715 -2.64331C28.3713 -2.88777 28.1729 -1.75782 28.8609 -1.53452Z" fill="#424B54"/>
<path d="M23.6054 -0.869676C27.2366 1.46213 31.7112 2.68648 35.6081 4.04694C40.0834 5.60934 45.0525 7.64819 49.6648 7.80584C50.3585 7.82844 50.3073 6.64514 49.5954 6.63307C45.0987 6.46509 40.2027 4.46866 35.8187 2.93814C32.0314 1.59904 27.6116 0.42763 24.0962 -1.82998C23.4503 -2.27504 22.9535 -1.28306 23.6054 -0.869676Z" fill="#424B54"/>
<path d="M22.6141 2.29761C29.1311 8.32243 38.4807 10.2015 46.2815 10.4927C46.9751 10.5153 46.924 9.33197 46.2121 9.3199C38.7337 9.03998 29.6157 7.30929 23.3304 1.51738C22.7635 0.99853 22.0472 1.77877 22.6141 2.29761Z" fill="#424B54"/>
<path d="M35.2947 19.9667C27.5642 18.3657 20.4409 16.2167 12.6284 16.1579C11.9165 16.1458 11.9981 17.3398 12.6978 17.3307C20.4616 17.3893 27.664 19.5491 35.3641 21.1395C36.0642 21.2994 35.9948 20.1266 35.2947 19.9667Z" fill="#424B54"/>
<path d="M30.5853 25.6192C22.928 24.1452 15.9566 21.8803 8.22362 22.0013C7.52394 22.0104 7.59334 23.1831 8.29303 23.174C15.9956 23.0424 23.0339 25.2969 30.6547 26.792C31.373 26.9414 31.2914 25.7475 30.5853 25.6192Z" fill="#424B54"/>
<path d="M19.5957 42.2875C16.9679 42.62 14.575 41.8015 11.9453 41.2043C9.066 40.5538 6.33434 40.6642 3.57295 41.1021C2.88566 41.2168 3.2349 42.3691 3.92219 42.2543C7.30397 41.7121 10.3466 41.9299 13.8045 42.8668C15.9231 43.4206 17.8646 43.71 19.9571 43.4609C20.6262 43.3566 20.2769 42.2044 19.5957 42.2875Z" fill="#424B54"/>
<path d="M27.242 29.9751C20.6499 28.704 14.7745 23.9165 7.97813 23.8916C7.27845 23.9007 7.34785 25.0734 8.04753 25.0644C14.8256 25.0998 20.7193 29.8767 27.3114 31.1478C28.0297 31.2972 27.948 30.1033 27.242 29.9751Z" fill="#424B54"/>
<path d="M25.8522 31.6519C19.0007 31.405 12.1063 28.1367 5.16923 27.7417C4.46335 27.6979 4.53275 28.8707 5.23863 28.9144C12.1635 29.2883 19.0579 32.5566 25.9216 32.8247C26.6275 32.8684 26.5581 31.6957 25.8522 31.6519Z" fill="#424B54"/>
<path d="M4.97256 32.5376C7.31874 34.2856 10.9825 34.7371 13.588 35.3764C16.723 36.1331 20.1689 37.1335 23.2838 36.971C23.9712 36.9408 23.9201 35.7575 23.2144 35.7982C20.1846 35.9397 16.8301 34.9713 13.7986 34.2676C11.2844 33.6602 7.69379 33.2511 5.45116 31.5561C4.84173 31.09 4.36314 32.0715 4.97256 32.5376Z" fill="#424B54"/>
<path d="M4.34466 37.7233C7.09224 36.5037 10.5206 37.8526 13.5029 38.3026C16.5339 38.7527 19.496 38.2836 22.465 38.2053C23.1525 38.1751 23.0831 37.0023 22.3956 37.0326C18.7696 37.1517 15.3387 37.5247 11.644 36.8091C8.93535 36.2857 6.17766 35.5932 3.71576 36.6761C3.11396 36.939 3.72463 37.9967 4.34466 37.7233Z" fill="#424B54"/>
<path d="M17.6742 45.738C12.607 46.2661 7.10066 43.3809 2.36555 45.5788C1.75774 45.8734 2.36841 46.9311 2.97623 46.6366C7.51681 44.5228 13.1205 47.4081 18.0235 46.8902C18.6987 46.8388 18.3373 45.6654 17.6742 45.738Z" fill="#424B54"/>
<path d="M16.7473 47.627C10.8806 46.9807 5.59569 48.1422 0.532427 50.5295C-0.075391 50.824 0.535279 51.8818 1.1431 51.5872C6.07874 49.2736 11.1264 48.1644 16.8289 48.8209C17.5288 48.8963 17.4594 47.7236 16.7473 47.627Z" fill="#424B54"/>
<path d="M13.9963 53.0511C9.04712 51.8468 4.69063 54.7005 0.673087 56.7098C0.0652692 57.0043 0.675939 58.062 1.28376 57.7675C5.01562 55.895 9.20786 53.0515 13.7979 54.181C14.4797 54.3515 14.6963 53.211 13.9963 53.0511Z" fill="#424B54"/>
<path d="M12.9877 53.7461C8.60194 54.2756 6.06895 59.1509 2.47125 61.1716C1.88786 61.5084 2.49853 62.5662 3.08192 62.2293C6.62492 60.2402 9.10322 55.3965 13.3369 54.8983C14.0182 54.8153 13.6689 53.663 12.9877 53.7461Z" fill="#424B54"/>
<path d="M3.2435 66.6773C4.94625 66.2583 5.99001 64.9506 7.05801 63.6006C8.75702 61.4069 10.3224 59.3185 12.9425 58.257C13.5748 58.0048 12.9641 56.9471 12.3318 57.1993C10.2953 58.0084 8.81363 59.3998 7.4665 61.1083C6.18609 62.722 5.00447 65.0119 2.89426 65.5251C2.2314 65.6821 2.58064 66.8344 3.2435 66.6773Z" fill="#424B54"/>
<path d="M31.8239 24.3963C27.8727 23.2364 24.4179 20.9155 20.3579 20.0724C16.8274 19.3466 13.0537 18.7047 9.64785 19.3736C8.97277 19.5095 9.32201 20.6618 9.99709 20.5259C13.5185 19.8466 17.548 20.5947 21.176 21.4052C24.8344 22.2264 28.0152 24.4516 31.6133 25.5051C32.3013 25.7284 32.5301 24.609 31.8239 24.3963Z" fill="#424B54"/>
<path d="M37.2684 18.1224C34.2185 17.3447 31.635 15.5645 28.736 14.2484C23.6081 11.9345 18.0584 11.5847 12.8009 11.3201C12.095 11.2763 12.1766 12.4703 12.8703 12.4929C18.1947 12.7471 23.8417 13.0971 29.0005 15.5906C31.7352 16.9169 34.1601 18.5067 37.0578 19.2311C37.7701 19.4122 37.9807 18.3034 37.2684 18.1224Z" fill="#424B54"/>
<path d="M41.8338 13.3989C34.7033 10.69 27.5476 7.60067 20.3148 5.43028C19.6085 5.2175 19.4101 6.34746 20.1042 6.53908C27.337 8.70947 34.4805 11.7776 41.6232 14.5077C42.3052 14.7627 42.534 13.6434 41.8338 13.3989Z" fill="#424B54"/>
<path d="M40.9049 14.2738C36.5212 12.9123 32.0289 11.952 27.5975 11.013C23.927 10.2552 19.251 8.72405 15.6872 9.54053C15.0244 9.69759 15.3736 10.8498 16.0365 10.6928C19.8738 9.80292 25.2867 11.642 29.213 12.506C33.0297 13.3486 36.8951 14.1914 40.6942 15.3826C41.3822 15.6059 41.5929 14.4971 40.9049 14.2738Z" fill="#424B54"/>
<path d="M61.7845 -1.13725C61.8939 7.43055 65.2264 15.2657 67.5013 23.6268C67.7159 24.3773 68.7497 24.1471 68.5352 23.3965C66.2909 15.1306 62.9768 7.36946 62.8616 -1.08215C62.8722 -1.82162 61.7829 -1.89787 61.7845 -1.13725Z" fill="#424B54"/>
<path d="M65.7852 23.5175C64.7173 19.1416 63.1628 14.8493 61.5841 10.5991C60.5804 7.85031 58.6992 4.42353 58.4011 1.54944C58.3326 0.799233 57.2311 0.701827 57.3118 1.47318C57.5669 4.14647 59.1919 7.21352 60.1281 9.71922C61.8475 14.3394 63.5487 18.9701 64.7209 23.7371C64.9294 24.5193 65.9815 24.2785 65.7852 23.5175Z" fill="#424B54"/>
<path d="M55.5985 2.63177C56.7465 10.3461 58.0541 18.7579 62.1759 25.7707C62.5667 26.4477 63.4783 25.9214 63.0874 25.2444C59.0878 18.4432 57.811 10.211 56.6878 2.70802C56.5828 1.97887 55.4814 1.88146 55.5985 2.63177Z" fill="#424B54"/>
<path d="M61.3894 27.9451C58.5447 20.6181 55.3355 13.5861 51.0442 6.95326C50.6169 6.29737 49.7054 6.82365 50.1327 7.47954C54.3629 14.0066 57.5537 20.9646 60.3555 28.1753C60.6247 28.8942 61.6586 28.664 61.3894 27.9451Z" fill="#424B54"/>
<path d="M59.328 31.3637C57.5308 27.4088 56.2992 23.2968 54.8121 19.2475C53.417 15.4837 50.4888 11.8434 49.8173 7.94382C49.7002 7.19351 48.5804 7.10663 48.7281 7.86757C49.4365 11.9997 52.3036 15.5342 53.7783 19.4777C55.3264 23.6328 56.5886 27.84 58.4346 31.8794C58.7525 32.5985 59.6519 32.051 59.328 31.3637Z" fill="#424B54"/>
<path d="M70.2667 19.4067C68.129 15.5357 69.0442 10.9739 67.8126 6.86181C66.9364 3.9548 65.3844 0.845642 65.0252 -2.13422C64.9262 -2.89506 63.837 -2.97131 63.9359 -2.21048C64.3197 0.896211 65.8779 4.0582 66.7787 7.09204C68.0594 11.3732 67.138 15.8822 69.3674 19.9542C69.7277 20.6205 70.6393 20.0942 70.2667 19.4067Z" fill="#424B54"/>
<path d="M72.0358 15.7343C71.3649 9.18308 69.412 3.48485 66.8192 -2.69014C66.5317 -3.39855 65.4856 -3.18947 65.7853 -2.45991C68.3293 3.63046 70.2636 9.17019 70.9466 15.6581C71.0273 16.4294 72.1166 16.5057 72.0358 15.7343Z" fill="#424B54"/>
<path d="M74.5489 15.9191C74.4127 11.9361 73.8691 8.04733 72.4128 4.17775C71.3359 1.30201 69.8884 -1.33154 69.5412 -4.37476C69.4423 -5.1356 68.353 -5.21185 68.452 -4.45102C68.7678 -1.84099 69.7643 0.432424 70.7734 2.89602C72.5286 7.1571 73.2981 11.395 73.4596 15.8429C73.4917 16.6141 74.5809 16.6904 74.5489 15.9191Z" fill="#424B54"/>
<path d="M55.014 2.46146C51.5831 2.75 46.8194 0.0566159 43.4643 -1.16536C39.8657 -2.47237 35.9316 -4.14983 32.2261 -4.21049C31.5142 -4.22256 31.5836 -3.04979 32.2955 -3.03772C36.6947 -2.95447 41.4148 -0.715436 45.6772 0.85708C48.6183 1.95141 52.3095 3.8819 55.3451 3.62422C56.069 3.57293 55.7075 2.39954 55.014 2.46146Z" fill="#424B54"/>
<path d="M57.1224 1.18747C49.0533 -2.30522 40.8324 -5.5975 32.4745 -7.48504C31.7745 -7.64499 31.5456 -6.52566 32.2639 -6.37624C40.634 -4.46755 48.8366 -1.16474 56.9118 2.29627C57.6 2.60408 57.7984 1.47413 57.1224 1.18747Z" fill="#424B54"/>
<path d="M60.787 -1.01253C52.5564 -3.14278 44.0103 -10.6192 35.5858 -9.50664C34.9045 -9.42356 35.2659 -8.25017 35.935 -8.3544C44.0615 -9.43589 52.6136 -1.99116 60.5764 0.0962639C61.2704 0.287888 61.481 -0.820908 60.787 -1.01253Z" fill="#424B54"/>
<path d="M66.7128 -4.01076C62.9342 -4.11383 58.371 -6.92299 54.766 -8.36735C51.0757 -9.87527 46.6843 -12.0502 42.8333 -11.8576C42.1458 -11.8274 42.197 -10.6441 42.9027 -10.6849C47.1369 -10.9295 52.1195 -8.27787 56.1691 -6.61072C59.421 -5.27276 63.3747 -2.92971 66.7822 -2.83799C67.4941 -2.82592 67.4247 -3.99869 66.7128 -4.01076Z" fill="#424B54"/>
<path d="M69.4902 -5.47365C66.9691 -6.47201 64.6966 -7.92412 62.2784 -9.2075C59.0927 -10.8939 55.7564 -11.8729 52.4082 -12.704C51.7082 -12.8639 51.4976 -11.7551 52.1976 -11.5952C55.7649 -10.7214 59.2839 -9.67866 62.6099 -7.7912C64.809 -6.55053 66.9412 -5.29945 69.2673 -4.38601C69.9555 -4.07819 70.1661 -5.18698 69.4902 -5.47365Z" fill="#424B54"/>
</svg>
