<svg width="66" height="59" viewBox="0 0 66 59" fill="none" xmlns="http://www.w3.org/2000/svg">
<path d="M20.8791 27.2942V24.2422H24.7711C25.1257 24.2422 25.4337 24.3635 25.6951 24.6062C25.9564 24.8302 26.0871 25.2129 26.0871 25.7542C26.0871 26.3702 25.9284 26.7809 25.6111 26.9862C25.3124 27.1915 24.9764 27.2942 24.6031 27.2942H20.8791Z" fill="#8EC6D8"/>
<path d="M26.3951 32.0542C26.6564 32.3715 26.7871 32.7729 26.7871 33.2582C26.7871 33.7809 26.6284 34.1822 26.3111 34.4622C26.0124 34.7422 25.6391 34.8822 25.1911 34.8822H20.8791V31.5502H25.3871C25.7977 31.5502 26.1337 31.7182 26.3951 32.0542Z" fill="#8EC6D8"/>
<path d="M45.6711 25.7822C46.4738 26.7155 46.8751 27.9569 46.8751 29.5062C46.8751 30.9995 46.4831 32.2409 45.6991 33.2302C44.9338 34.2195 43.8324 34.7142 42.3951 34.7142H40.2111V24.3542H42.3951C43.7951 24.3542 44.8871 24.8302 45.6711 25.7822Z" fill="#8EC6D8"/>
<path fill-rule="evenodd" clip-rule="evenodd" d="M65.1951 25.5599C65.1951 20.2009 62.3361 15.249 57.695 12.5695L40.4191 2.59525C35.7781 -0.0842421 30.0601 -0.084239 25.4191 2.59525L8.14312 12.5695C3.5021 15.249 0.64312 20.2009 0.64312 25.5599V33.5085C0.64312 38.8675 3.50211 43.8194 8.14312 46.4989L25.4191 56.4731C30.0601 59.1526 35.7781 59.1526 40.4191 56.4731L57.6951 46.4989C62.3361 43.8194 65.1951 38.8675 65.1951 33.5085V25.5599ZM31.3511 37.2902C32.0044 36.5435 32.3311 35.5729 32.3311 34.3782C32.3311 32.9969 31.9951 31.8862 31.3231 31.0462C30.6697 30.2062 29.7737 29.6182 28.6351 29.2822C29.5871 28.8529 30.2964 28.2089 30.7631 27.3502C31.2484 26.4915 31.4911 25.6049 31.4911 24.6902C31.4911 23.8502 31.3044 23.0382 30.9311 22.2542C30.5764 21.4702 30.0537 20.8355 29.3631 20.3502C28.6911 19.8462 27.8884 19.5942 26.9551 19.5942H15.4191V39.4742H25.1911C26.4977 39.4742 27.6924 39.2969 28.7751 38.9422C29.8577 38.5875 30.7164 38.0369 31.3511 37.2902ZM34.7511 19.5942V39.4742H42.3951C44.4111 39.4742 46.1658 39.0635 47.6591 38.2422C49.1711 37.4209 50.3378 36.2635 51.1591 34.7702C51.9991 33.2769 52.4191 31.5222 52.4191 29.5062C52.4191 27.6769 52.0364 26.0155 51.2711 24.5222C50.5244 23.0102 49.4044 21.8155 47.9111 20.9382C46.4364 20.0422 44.5978 19.5942 42.3951 19.5942H34.7511Z" fill="#8EC6D8"/>
</svg>
