<svg width="17" height="37" viewBox="0 0 17 37" fill="none" xmlns="http://www.w3.org/2000/svg">
<g clip-path="url(#clip0)">
<path d="M2.44538 21.7189C2.87713 22.6781 4.33427 25.259 5.00887 26.4295C9.11046 27.1833 12.7443 26.7436 14.0486 26.4295C14.4533 25.5445 15.4517 23.3633 16.2073 21.7189C16.9628 20.0745 14.4533 10.6418 13.1041 6.13085C10.5136 5.5827 7.1676 5.90252 5.8184 6.13085L2.44538 18.3785C2.26549 19.0923 2.01364 20.7596 2.44538 21.7189Z" fill="url(#paint0_diamond)"/>
<path d="M7.43745 0.306783C7.32952 0.512339 6.31311 4.27521 5.81841 6.13086C9.27237 5.58271 12.1147 5.90252 13.1041 6.13086C13.1041 5.87391 11.7549 0.47808 11.62 0.306783C11.5121 0.169746 11.3052 0.135486 11.2152 0.135486C10.0009 0.107052 7.54539 0.101228 7.43745 0.306783Z" fill="url(#paint1_linear)" stroke="white"/>
<path d="M6.08824 19.0637C6.19617 17.7619 4.06443 16.9225 2.98506 16.6656L2.71522 17.0938L2.17553 20.0059C2.13056 20.2058 2.14855 20.7425 2.5803 21.2906C3.11998 21.9758 3.79458 21.9758 4.46919 21.9758C5.14379 21.9758 5.95332 20.6911 6.08824 19.0637Z" fill="url(#paint2_linear)"/>
<path d="M8.51682 8.87157C7.11364 9.48824 5.77342 8.90018 5.27872 8.52898L5.1438 8.27203C5.36866 7.58685 5.84539 6.19935 5.95332 6.13083C6.06126 6.06231 7.43745 5.9311 8.11205 5.87389C8.33691 5.9311 8.86761 6.1137 9.19142 6.38777C9.59618 6.73037 10.2708 8.10074 8.51682 8.87157Z" fill="url(#paint3_linear)"/>
<path d="M8.78666 10.8414C10.7295 9.81367 13.284 10.4132 14.3184 10.8414L14.5882 11.2697L15.3978 14.8669L15.9375 17.522C15.9375 17.8646 15.9105 18.6354 15.8025 18.978C15.6676 19.4063 14.993 20.6911 12.6994 20.4341C10.4057 20.1772 10.1359 18.5498 10.1359 17.522C10.1359 16.6998 8.87662 15.1239 8.24698 14.4387C7.61736 13.6678 6.8438 11.8692 8.78666 10.8414Z" fill="url(#paint4_linear)"/>
<path d="M16.747 36.4504C10.4867 37.1356 4.69406 36.7359 2.58031 36.4504L6.08824 28.8277L4.87396 26.6009C8.75967 27.2175 12.6094 26.8578 14.0486 26.6009L12.9692 28.8277L16.747 36.4504Z" fill="url(#paint5_linear)"/>
<path d="M12.9692 28.8277L14.0486 26.6009C12.6094 26.8578 8.75967 27.2175 4.87396 26.6009L6.08824 28.8277M12.9692 28.8277L16.747 36.4504C10.4867 37.1356 4.69405 36.7359 2.58031 36.4504L6.08824 28.8277L12.9692 28.8277ZM12.9692 28.8277C11.8448 28.999 8.89459 29.2388 6.08824 28.8277L12.9692 28.8277Z" stroke="white"/>
<path d="M2.44538 21.7189C2.87713 22.6781 4.33427 25.259 5.00887 26.4295C9.11046 27.1833 12.7443 26.7436 14.0486 26.4295C14.4533 25.5445 15.4517 23.3633 16.2073 21.7189C16.9628 20.0745 14.4533 10.6418 13.1041 6.13085C10.5136 5.5827 7.1676 5.90252 5.8184 6.13085L2.44538 18.3785C2.26549 19.0923 2.01364 20.7596 2.44538 21.7189Z" stroke="white"/>
<path d="M10.8105 25.7444C11.6301 25.7444 12.2946 25.3226 12.2946 24.8022C12.2946 24.2819 11.6301 23.8601 10.8105 23.8601C9.99081 23.8601 9.32634 24.2819 9.32634 24.8022C9.32634 25.3226 9.99081 25.7444 10.8105 25.7444Z" fill="url(#paint6_linear)"/>
</g>
<defs>
<radialGradient id="paint0_diamond" cx="0" cy="0" r="1" gradientUnits="userSpaceOnUse" gradientTransform="translate(9.32633 16.323) rotate(90) scale(8.30787 5.58904)">
<stop stop-color="#EAFFFF"/>
<stop offset="1" stop-color="#FAFFFF"/>
</radialGradient>
<linearGradient id="paint1_linear" x1="9.46126" y1="0.121097" x2="9.46126" y2="6.13086" gradientUnits="userSpaceOnUse">
<stop stop-color="#FFFFFC"/>
<stop offset="0.572917" stop-color="#F7F6F5"/>
</linearGradient>
<linearGradient id="paint2_linear" x1="4.33427" y1="21.3763" x2="3.648" y2="17.7727" gradientUnits="userSpaceOnUse">
<stop stop-color="#5B37A8"/>
<stop offset="1" stop-color="#0255B6"/>
</linearGradient>
<linearGradient id="paint3_linear" x1="7.97713" y1="5.87389" x2="7.21805" y2="9.18528" gradientUnits="userSpaceOnUse">
<stop stop-color="#5B37A8"/>
<stop offset="1" stop-color="#0255B6"/>
</linearGradient>
<linearGradient id="paint4_linear" x1="14.5882" y1="12.6401" x2="13.287" y2="20.3939" gradientUnits="userSpaceOnUse">
<stop stop-color="#5B37A8"/>
<stop offset="1" stop-color="#0255B6"/>
</linearGradient>
<linearGradient id="paint5_linear" x1="9.59618" y1="26.8578" x2="9.59618" y2="36.8786" gradientUnits="userSpaceOnUse">
<stop offset="0.171875" stop-color="#F7F6F5"/>
<stop offset="1" stop-color="#FFFFFC"/>
</linearGradient>
<linearGradient id="paint6_linear" x1="10.8105" y1="23.8601" x2="10.8105" y2="25.7444" gradientUnits="userSpaceOnUse">
<stop stop-color="#0255B6"/>
<stop offset="1" stop-color="#5B37A8"/>
</linearGradient>
<clipPath id="clip0">
<rect width="37" height="17" fill="white" transform="translate(0 37) rotate(-90)"/>
</clipPath>
</defs>
</svg>
